<svg width="102" height="48" viewBox="0 0 102 48" fill="none" xmlns="http://www.w3.org/2000/svg">
<path d="M18.2738 8.36465C17.6668 7.71658 16.9141 7.98559 16.9505 8.78651L17.4058 16.8263C17.5939 20.4824 19.6761 22.6161 23.3061 22.8057L31.2886 23.2642C32.0839 23.3009 32.3085 22.5795 31.7075 21.9314L18.2738 8.36465Z" fill="#7DCE73"/>
<path d="M31.2826 24.7437L23.3061 25.1962C19.6761 25.3857 17.5939 27.5195 17.4058 31.1756L16.9505 39.2153C16.9141 40.0163 17.6668 40.2792 18.2738 39.6372L31.7014 26.0766C32.3024 25.4285 32.0778 24.7009 31.2826 24.7437Z" fill="#7DCE73"/>
<path d="M14.6433 31.1816C14.4551 27.5255 12.373 25.3918 8.74291 25.2023L0.760417 24.7437C-0.0347979 24.707 -0.2594 25.4652 0.341564 26.0765L13.7752 39.6372C14.3823 40.2852 15.135 40.0162 15.0986 39.2153L14.6433 31.1816Z" fill="#7DCE73"/>
<path d="M13.7757 8.36497L0.348118 21.9256C-0.258916 22.537 -0.0282419 23.2951 0.766973 23.2584L8.74947 22.7999C12.3795 22.6103 14.4617 20.4766 14.6498 16.8205L15.1051 8.78071C15.1355 7.97979 14.3767 7.7169 13.7757 8.36497Z" fill="#7DCE73"/>
<path d="M53.5246 25.5573C55.9588 26.8718 56.7115 29.7576 56.1712 34.3002C56.1287 34.6487 55.8373 34.9116 55.4913 34.9116H52.4683C52.0616 34.9116 51.7399 34.5509 51.7884 34.1412C52.438 28.6143 51.7338 26.6456 48.5651 26.6456H43.3992L42.0759 34.3369C42.0213 34.667 41.7359 34.9055 41.4021 34.9055H38.3062C37.8813 34.9055 37.5596 34.5203 37.6324 34.0984L41.2321 13.6474C41.2928 13.3173 41.5721 13.0789 41.9059 13.0789H51.6427C56.0073 13.0789 58.4537 14.9803 58.4537 18.722C58.4476 22.0663 56.5597 24.469 53.5246 25.5573ZM53.8645 19.26C53.8645 17.6093 52.9357 16.6738 51.0175 16.6738H45.6817C45.3478 16.6738 45.0625 16.9123 45.0079 17.2424L43.9638 23.3135H49.4149C52.1648 23.3135 53.8645 21.5344 53.8645 19.26Z" fill="#006F83"/>
<path d="M76.8533 20.1276L74.3705 34.3425C74.3159 34.6726 74.0306 34.911 73.6967 34.911H70.874C70.4491 34.911 70.1273 34.5259 70.2002 34.104L70.4369 32.7284C69.0408 34.3486 67.1529 35.3818 64.8947 35.3818C61.21 35.3818 58.7637 32.6367 58.7637 28.4303C58.7637 23.2824 62.3573 18.856 67.2136 18.856C69.751 18.856 71.4871 20.0726 72.3248 22.133L72.6951 19.9014C72.7497 19.5713 73.035 19.3267 73.3689 19.3267H76.1855C76.6044 19.3206 76.9261 19.7058 76.8533 20.1276ZM71.5782 26.1804C71.5782 23.8755 70.2488 22.4693 68.112 22.4693C65.1072 22.4693 63.0979 25.1838 63.0979 27.9901C63.0979 30.2951 64.4577 31.7624 66.6248 31.7624C69.5628 31.7624 71.5782 29.0478 71.5782 26.1804Z" fill="#006F83"/>
<path d="M79.9482 19.3215H82.7709C83.1958 19.3215 83.5175 19.7067 83.4447 20.1285L80.9619 34.3434C80.9073 34.6735 80.622 34.9119 80.2881 34.9119H77.4654C77.0405 34.9119 76.7187 34.5268 76.7916 34.1049L79.2743 19.8901C79.3351 19.56 79.6204 19.3215 79.9482 19.3215ZM79.8692 15.0846C79.8692 13.6172 81.0165 12.4312 82.5038 12.4312C83.8332 12.4312 84.7316 13.3971 84.7316 14.6749C84.7316 16.1729 83.5843 17.359 82.1335 17.359C80.798 17.359 79.8692 16.393 79.8692 15.0846Z" fill="#006F83"/>
<path d="M101.99 20.1276L99.5072 34.3425C99.4526 34.6726 99.1673 34.911 98.8334 34.911H96.0107C95.5858 34.911 95.2641 34.5259 95.3369 34.104L95.5737 32.7284C94.1775 34.3486 92.2896 35.3818 90.0314 35.3818C86.3467 35.3818 83.9004 32.6367 83.9004 28.4303C83.9004 23.2824 87.494 18.856 92.3503 18.856C94.8877 18.856 96.6238 20.0726 97.4615 22.133L97.8318 19.9014C97.8865 19.5713 98.1718 19.3267 98.5056 19.3267H101.322C101.741 19.3206 102.063 19.7058 101.99 20.1276ZM96.7149 26.1804C96.7149 23.8755 95.3855 22.4693 93.2487 22.4693C90.2439 22.4693 88.2346 25.1838 88.2346 27.9901C88.2346 30.2951 89.5944 31.7624 91.7615 31.7624C94.6995 31.7624 96.7149 29.0478 96.7149 26.1804Z" fill="#006F83"/>
</svg>
