<svg width="154" height="50" viewBox="0 0 154 50" fill="none" xmlns="http://www.w3.org/2000/svg">
<path d="M39.3757 48.3084C29.7255 49.2306 20.0082 49.2306 10.3579 48.3084C5.91525 47.8558 2.17486 43.8763 1.72665 39.4325C0.757782 29.7383 0.757782 20.2623 1.72665 10.5671C2.17486 6.12341 5.91525 2.14391 10.3579 1.69131C20.0082 0.769115 29.7255 0.77001 39.3757 1.69131C43.8184 2.14481 47.5588 6.12341 48.007 10.5671C48.9759 20.2614 48.9759 29.7383 48.007 39.4325C47.5588 43.8763 43.8184 47.8558 39.3757 48.3084Z" fill="#FF2342"/>
<path d="M41.0558 21.4822C40.9913 20.7622 40.2273 19.9867 39.3658 19.7729C37.1812 19.255 34.9894 18.8391 32.8011 18.5395C32.0291 18.4339 31.4315 17.8364 31.3259 17.0654C31.0262 14.8784 30.6111 12.6878 30.094 10.5026C29.8874 9.64305 29.0947 8.87918 28.3844 8.81299C26.0047 8.618 23.7243 8.618 21.3482 8.81299C20.6281 8.8774 19.8524 9.64126 19.6386 10.5026C19.1206 12.6878 18.7046 14.8784 18.4049 17.0663C18.2994 17.8382 17.7018 18.4357 16.9306 18.5412C14.7433 18.8409 12.5524 19.2559 10.3677 19.7729C9.50797 19.9795 8.74307 20.772 8.67776 21.4822C8.48274 23.8615 8.48274 26.1415 8.67776 28.5172C8.74218 29.2373 9.50618 30.0128 10.3677 30.2266C12.5524 30.7445 14.7442 31.1604 16.9315 31.4601C17.7036 31.5656 18.3003 32.1631 18.4067 32.9341C18.7064 35.1211 19.1215 37.3117 19.6386 39.4951C19.8453 40.3547 20.6379 41.1185 21.3482 41.1847C23.7279 41.3797 26.0083 41.3797 28.3844 41.1847C29.1046 41.1203 29.8802 40.3564 30.094 39.4951C30.612 37.3108 31.028 35.1202 31.3277 32.9323C31.4332 32.1604 32.0309 31.5638 32.802 31.4574C34.9894 31.1577 37.1803 30.7418 39.3658 30.2257C40.2264 30.0191 40.9896 29.2266 41.0558 28.5164C41.2508 26.1371 41.2508 23.8571 41.0558 21.4814V21.4822Z" fill="white"/>
<path d="M58.1252 22.256V5.14662C58.1252 4.3577 58.3542 3.97577 59.3472 3.82281C61.2062 3.54284 63.4723 3.38989 65.6113 3.38989C70.9844 3.38989 74.6255 5.37561 74.6255 10.0859C74.6255 13.9813 72.1554 17.1638 65.4843 17.1638H63.1413V22.256C63.1413 22.816 62.8353 23.1219 62.2753 23.1219H58.9903C58.4302 23.1219 58.1243 22.816 58.1243 22.256H58.1252ZM65.5362 13.1664C68.2862 13.1664 69.5083 12.2756 69.5083 10.2889C69.5083 8.30232 68.1842 7.38638 65.7151 7.38638C64.7981 7.38638 63.8051 7.48834 63.1431 7.6404V13.1655H65.5371L65.5362 13.1664Z" fill="#0000BE"/>
<path d="M76.0994 15.713C76.0994 10.4169 79.5884 7.08228 85.1386 7.08228C87.4816 7.08228 90.5376 7.64222 91.9636 8.35511C92.4217 8.55905 92.5746 8.78804 92.5746 9.27195V22.2569C92.5746 22.8169 92.2687 23.1228 91.7086 23.1228H88.5005C87.9405 23.1228 87.6095 22.8169 87.6095 22.2569V20.3723C86.5655 22.358 84.9105 23.3768 82.6193 23.3768C78.7233 23.3768 76.1003 20.3222 76.1003 15.713H76.0994ZM84.4265 19.1496C85.6995 19.1496 86.7945 18.5896 87.6086 17.4689V11.5877C86.7686 11.2568 85.8775 11.1038 85.0625 11.1038C82.5165 11.1038 81.0394 12.6316 81.0394 15.2282C81.0394 17.6469 82.3375 19.1487 84.4265 19.1487V19.1496Z" fill="#0000BE"/>
<path d="M96.263 27.0169C95.906 26.813 95.6269 26.5831 95.932 25.8201L96.5171 24.2664C96.7461 23.6555 97.129 23.5285 97.7141 23.8075C99.2931 24.5965 100.795 24.9534 102.705 24.9534C105.455 24.9534 106.957 23.5795 106.957 20.829V19.5561C105.913 21.5159 104.258 22.2547 101.967 22.2547C98.097 22.2547 95.448 19.3522 95.448 15.3548C95.448 10.3905 98.9621 7.08008 104.64 7.08008C107.288 7.08008 109.886 7.64001 111.312 8.35291C111.77 8.55685 111.923 8.78583 111.923 9.26974V20.523C111.923 25.1823 108.969 28.4668 103.316 28.4668C100.337 28.4668 97.587 27.8809 96.2621 27.016L96.263 27.0169ZM103.775 18.5132C105.048 18.5132 106.168 17.9523 106.957 16.8575V11.4603C106.143 11.1293 105.251 11.0014 104.411 11.0014C101.89 11.0014 100.388 12.4782 100.388 14.8709C100.388 17.0355 101.712 18.5123 103.775 18.5123V18.5132Z" fill="#0000BE"/>
<path d="M115.23 17.342V8.20227C115.23 7.64143 115.561 7.33643 116.121 7.33643H119.329C119.889 7.33643 120.195 7.64233 120.195 8.20227V16.0441C120.195 18.0039 121.086 18.9207 122.716 18.9207C123.989 18.9207 125.262 18.2847 125.975 17.2659V8.20227C125.975 7.64143 126.306 7.33643 126.866 7.33643H130.074C130.634 7.33643 130.94 7.64233 130.94 8.20227V22.2562C130.94 22.8161 130.634 23.122 130.074 23.122H126.866C126.28 23.122 125.975 22.8161 125.975 22.2562V20.0155C124.905 22.2052 123.097 23.376 120.653 23.376C117.164 23.376 115.229 21.1104 115.229 17.342H115.23Z" fill="#0000BE"/>
<path d="M142.422 7.0813C147.159 7.0813 150.138 9.93288 150.138 14.1342C150.138 15.458 149.679 16.1959 148.738 16.1959H138.73C139.138 18.5135 140.691 19.8624 143.339 19.8624C144.74 19.8624 146.013 19.4804 147.439 18.7416C148 18.4616 148.381 18.5895 148.611 19.1754L149.222 20.7032C149.502 21.4671 149.247 21.722 148.891 21.925C147.414 22.8419 145.199 23.3758 142.958 23.3758C137.483 23.3758 133.867 19.9134 133.867 15.1011C133.867 10.2889 137.356 7.0813 142.423 7.0813H142.422ZM145.808 13.3963C145.528 11.5376 144.357 10.5697 142.421 10.5697C140.588 10.5697 139.213 11.4096 138.78 13.3963H145.808Z" fill="#0000BE"/>
<path d="M58.1252 45.4897V27.7694C58.1252 27.2095 58.4562 26.9036 59.0162 26.9036H63.8033C64.3123 26.9036 64.6174 27.1325 64.8223 27.5905L69.3293 38.2079L73.7854 27.5905C73.9894 27.1066 74.3464 26.9036 74.8554 26.9036H79.4394C79.9994 26.9036 80.3305 27.2095 80.3305 27.7694V45.4897C80.3305 46.0497 79.9994 46.3556 79.4394 46.3556H76.6634C76.1034 46.3556 75.7724 46.0497 75.7724 45.4897V32.6326L71.7233 42.0022C71.5453 42.4602 71.1884 42.6641 70.7044 42.6641H67.8273C67.3174 42.6641 66.9872 42.4602 66.8083 42.0022L62.6823 32.4546V45.4906C62.6823 46.0506 62.3513 46.3565 61.7913 46.3565H59.0153C58.4544 46.3565 58.1243 46.0506 58.1243 45.4906L58.1252 45.4897Z" fill="#0000BE"/>
<path d="M91.733 30.3152C96.47 30.3152 99.449 33.1668 99.449 37.3681C99.449 38.6919 98.9901 39.4298 98.049 39.4298H88.0409C88.4488 41.7474 90.0019 43.0963 92.6499 43.0963C94.0509 43.0963 95.324 42.7143 96.75 41.9755C97.3109 41.6955 97.692 41.8234 97.9219 42.4093L98.5329 43.9371C98.813 44.7009 98.558 44.9559 98.2019 45.1589C96.7249 46.0757 94.5099 46.6097 92.2688 46.6097C86.7938 46.6097 83.1777 43.1472 83.1777 38.335C83.1777 33.5228 86.6667 30.3152 91.7338 30.3152H91.733ZM95.1191 36.6293C94.8391 34.7705 93.668 33.8027 91.7321 33.8027C89.899 33.8027 88.524 34.6426 88.091 36.6293H95.1191Z" fill="#0000BE"/>
<path d="M102.272 45.4899V31.436C102.272 30.8751 102.603 30.5701 103.163 30.5701H106.371C106.931 30.5701 107.237 30.876 107.237 31.436V33.7276C108.307 31.4869 110.115 30.3152 112.661 30.3152C116.277 30.3152 118.187 32.6829 118.187 36.4253V45.4899C118.187 46.0498 117.881 46.3557 117.321 46.3557H114.113C113.553 46.3557 113.222 46.0498 113.222 45.4899V37.7241C113.222 35.7643 112.331 34.7705 110.6 34.7705C109.251 34.7705 107.978 35.4074 107.238 36.4253V45.4899C107.238 46.0498 106.932 46.3557 106.372 46.3557H103.164C102.604 46.3557 102.273 46.0498 102.273 45.4899H102.272Z" fill="#0000BE"/>
<path d="M120.78 38.284C120.78 33.4977 124.243 30.3152 129.463 30.3152C134.682 30.3152 138.146 33.4977 138.146 38.284C138.146 43.0703 134.53 46.6097 129.463 46.6097C124.396 46.6097 120.78 43.0963 120.78 38.284ZM129.463 42.5873C131.704 42.5873 133.155 40.8297 133.155 38.31C133.155 35.7902 131.781 34.3376 129.463 34.3376C127.145 34.3376 125.771 35.8394 125.771 38.31C125.771 40.7805 127.248 42.5873 129.463 42.5873Z" fill="#0000BE"/>
<path d="M140.256 45.184C139.746 44.8271 139.67 44.5471 139.925 43.9102L140.511 42.4594C140.74 41.8485 141.173 41.6964 141.784 41.9755C143.338 42.7653 144.789 43.1213 146.673 43.1213C148.557 43.1213 149.321 42.6884 149.321 41.7215C149.321 40.8556 148.634 40.4996 145.858 40.0157C142.14 39.3538 140.485 37.8511 140.561 35.2035C140.663 32.1488 142.98 30.3152 147.054 30.3152C149.296 30.3152 151.51 30.8501 152.937 31.766C153.497 32.0719 153.573 32.2499 153.294 33.0138L152.734 34.4646C152.479 35.0756 152.072 35.2026 151.435 34.9235C149.881 34.2106 148.278 33.8027 146.928 33.8027C145.477 33.8027 144.917 34.2106 144.917 34.9995C144.917 35.8654 145.63 36.2473 148.38 36.7053C151.971 37.2912 153.677 38.8699 153.677 41.5685C153.677 44.8271 151.233 46.6088 146.725 46.6088C144.179 46.6088 141.53 46.0239 140.257 45.184H140.256Z" fill="#0000BE"/>
</svg>
